<svg xmlns="http://www.w3.org/2000/svg" width="20" height="20" viewBox="0 0 20 20">
  <path id="Icon_awesome-youtube" data-name="Icon awesome-youtube" d="M20.632,7.629A3.245,3.245,0,0,0,18.864,5.1c-1.56-.6-7.814-.6-7.814-.6s-6.254,0-7.814.6A3.245,3.245,0,0,0,1.468,7.629,53.017,53.017,0,0,0,1.05,14.52a53.017,53.017,0,0,0,.418,6.891A3.173,3.173,0,0,0,3.236,23.9c1.56.6,7.814.6,7.814.6s6.254,0,7.814-.6a3.173,3.173,0,0,0,1.768-2.491,53.017,53.017,0,0,0,.418-6.891,53.018,53.018,0,0,0-.418-6.891ZM9,18.75V10.291l5.227,4.229L9,18.75Z" transform="translate(-1.05 -4.5)" fill="rgba(0,0,0,0.8)"/>
</svg>
