<svg xmlns="http://www.w3.org/2000/svg" viewBox="0 0 724.13 359.04"><defs><style>.cls-1{fill:#231815;}</style></defs><g id="레이어_2" data-name="레이어 2"><g id="레이어_1-2" data-name="레이어 1"><polygon class="cls-1" points="0 0 96.4 220.31 143.26 217.06 177.11 141.56 188.82 204.69 227.87 192.98 302.06 76.48 258.46 64.77 214.2 163.69 213.55 56.3 156.28 44.59 125.69 169.55 91.2 28.97 0 0"/><path class="cls-1" d="M676.23,57.55C624.18,1.79,555.72.88,544.31.92,529.07,1,478.51,3,432.07,40.44,392.28,72.5,377.88,112.5,373.16,128a62.58,62.58,0,0,0-53.69,0l19.74-38.71L307.27,77.78l-50.76,108L287.1,180l20.17-34.53a23.4,23.4,0,0,1,10-6.93c5.86-2,14.51-2.23,16.46,1.53.87,1.66.18,3.6-.18,4.57C327.77,160.14,312.2,182,312.2,182L344,183.25c9.83-13.73,21-28.08,33.66-42.68q10.49-12.09,20.79-22.74a116.32,116.32,0,0,1,15.36-26.94,205.11,205.11,0,0,0,19.59,12.45,202,202,0,0,0,20.7,10.09c-.56,1.85-1.1,3.85-1.55,6a68.76,68.76,0,0,0-1.4,10.12l19.24,5.68a63.23,63.23,0,0,1,1.64-8.61,60.61,60.61,0,0,1,2.08-6.45,261.84,261.84,0,0,0,32.46,7.18,261.18,261.18,0,0,0,27.75,2.8v19L555,152.43q0-11.58.1-23.17a208.47,208.47,0,0,0,33.51-2.55,208.47,208.47,0,0,0,27.26-6.21c1.67,6.46,3.21,13.54,4.45,21.17a235.55,235.55,0,0,1,2.87,28.06l-9.25.17a16.95,16.95,0,0,1,.24,20.12l9-.33a160.92,160.92,0,0,1-7.32,49.9,182.82,182.82,0,0,0-60.77-9.16L555,211l-20.6,1-.15,18.27a230.05,230.05,0,0,0-59.89,9.34q-1.69-6.06-3.13-12.76a213.28,213.28,0,0,1-4.06-27.94l-6,5.86L447,205c.68,6.65,1.57,13.64,2.73,20.93s2.5,14.3,3.94,20.87a172.75,172.75,0,0,0-39.35,22.08,139.17,139.17,0,0,1-26.94-70.19L366,194.13c1.19,15,7.17,67,49.92,110.93,50.6,52,115,53.86,127.42,54,11.38,0,82.85-1.06,135.24-59.53,43.58-48.64,45.48-105.21,45.53-119.61C724.13,166.52,722.66,107.3,676.23,57.55ZM460.6,93.71a103.6,103.6,0,0,1-19.72-9.53,102.82,102.82,0,0,1-14.14-10.57,159.93,159.93,0,0,1,25.91-23.15A161.6,161.6,0,0,1,505.74,25.7a193,193,0,0,0-45.14,68Zm74.27,15.5a247.34,247.34,0,0,1-30.39-3.14,244.93,244.93,0,0,1-24.32-5.32,150.63,150.63,0,0,1,54.9-72.66Q535,68.65,534.87,109.21ZM464.93,317.74a164.64,164.64,0,0,1-39.14-32.13,155.38,155.38,0,0,1,34.88-19.8A175.79,175.79,0,0,0,506.05,335,164.33,164.33,0,0,1,464.93,317.74ZM535.34,332a176.09,176.09,0,0,1-55.59-73.09c7.41-1.93,15.51-3.71,24.25-5.16a273.16,273.16,0,0,1,31.34-3.35ZM675.89,90.42a148.17,148.17,0,0,1,28.53,79.22H643.89a195.28,195.28,0,0,0-4-39.13c-1.28-6.2-2.8-12-4.43-17.35a122.73,122.73,0,0,0,18.12-7.71A123.53,123.53,0,0,0,675.89,90.42ZM586.32,106A192.17,192.17,0,0,1,555,108.91V28.09a157.73,157.73,0,0,1,54.94,72.15A193.06,193.06,0,0,1,586.32,106ZM611.1,58a191.33,191.33,0,0,0-26.53-32.37,167.89,167.89,0,0,1,79.62,48.53c-5,3.6-10.59,7.32-16.81,11s-12.17,6.78-17.74,9.42A191.18,191.18,0,0,0,611.1,58ZM554.85,332v-81.6A248.3,248.3,0,0,1,610,259.23,162,162,0,0,1,554.85,332Zm66.91-13a176,176,0,0,1-38.49,16.16,170.06,170.06,0,0,0,45.89-69.23c5.22,2.28,10.85,5,16.72,8.3a188.09,188.09,0,0,1,18,11.45A176.37,176.37,0,0,1,621.76,318.93Zm69.35-76.29a152.72,152.72,0,0,1-15.33,27.19,141.57,141.57,0,0,0-40.37-23.07c1.65-5.32,3.17-11.1,4.45-17.3a186.36,186.36,0,0,0,3.79-39.22h60A154.62,154.62,0,0,1,691.11,242.64Z"/><polygon class="cls-1" points="407.5 115.63 400.66 125.46 434.22 133.37 439.14 128.46 407.5 115.63"/><polygon class="cls-1" points="396.38 131.12 352.11 185.07 385.48 189.84 431.67 137.94 396.38 131.12"/><path class="cls-1" d="M434.8,139l-9.4,10.89,15,1.23L413.28,181a10.42,10.42,0,0,0-1.5,8.72c1.56,5.22,6.77,6.72,7.08,6.81l39.51,2,14.17-16.48-14.17.27a3.29,3.29,0,0,1-3.95-2.18,3.05,3.05,0,0,1,1.09-2.86L475,156.46l20.44,3.41,7.35-8.17-21.11-3,6.81-6.4-36-5.75-3.88,5.34Z"/><path class="cls-1" d="M609.56,176.69a14.94,14.94,0,0,0-11.63-11.19,211.92,211.92,0,0,0-55.2-8.35H510.06a37.82,37.82,0,0,0-21.77,10.29,37.34,37.34,0,0,0-10,17.08A19.42,19.42,0,0,0,482,195.34c5.19,7,13.42,7.74,14.71,7.83,5.81.45,11.94.75,18.36.85,8.81.14,17.1-.11,24.81-.63a181.74,181.74,0,0,0,27.15-2.53,183.09,183.09,0,0,0,28.19-7.16l-42.66-5.82a46.87,46.87,0,0,1-8.06,2.68,46.33,46.33,0,0,1-12.81,1.17A19.78,19.78,0,0,1,519.12,188a17.59,17.59,0,0,1-3.24-3.21,5.82,5.82,0,0,1,4.33-7l84,9.1a8.59,8.59,0,0,0,4.33-3.43A8.83,8.83,0,0,0,609.56,176.69Zm-43-1.39-39.84-4.62a34.73,34.73,0,0,1,20.51-6.53,47.72,47.72,0,0,1,18.56,4.15,3.9,3.9,0,0,1,.77,7Z"/></g></g></svg>